PathFileType	4	(X/Y/Z)	../Python\walking\Walking17\task.trc
DataRate	CameraRate	NumFrames	NumMarkers	Units	OrigDataRate	OrigDataStartFrame	OrigNumFrames
200.000000	200.000000	7	30	mm	200.000000	306	350
Frame#	Time	CLAV			STRN			RASI			LASI			PE01			RTH1			RTH2			RTH3			RTB3			RHEE			RD5M			RTOE			LTH2			LTH3			LTB2			LTB3			LHEE			LTOE			LD5M			RBAK			RTB2			C7			RTB1			LPSI			PE03			PE02			RPSI			T10			LTH1			LTB1			
		X1	Y1	Z1	X2	Y2	Z2	X3	Y3	Z3	X4	Y4	Z4	X5	Y5	Z5	X6	Y6	Z6	X7	Y7	Z7	X8	Y8	Z8	X9	Y9	Z9	X10	Y10	Z10	X11	Y11	Z11	X12	Y12	Z12	X13	Y13	Z13	X14	Y14	Z14	X15	Y15	Z15	X16	Y16	Z16	X17	Y17	Z17	X18	Y18	Z18	X19	Y19	Z19	X20	Y20	Z20	X21	Y21	Z21	X22	Y22	Z22	X23	Y23	Z23	X24	Y24	Z24	X25	Y25	Z25	X26	Y26	Z26	X27	Y27	Z27	X28	Y28	Z28	X29	Y29	Z29	X30	Y30	Z30	

307	1.53	691.142028808594	1233.31396484375	140.5790100097657	749.2671508789065	1050.38427734375	142.2788848876954	718.8569335937502	856.841674804688	295.8370361328126	721.1707763671877	847.1027832031255	67.80945587158206	524.3574218750002	929.7775268554692	182.0962219238282	590.430114746094	576.1301269531252	317.3242492675782	586.3787231445315	499.749206542969	294.6225891113282	627.2337646484377	545.9256591796877	299.7192993164064	491.8758239746096	209.1714630126954	262.5716857910157	351.358612060547	45.81420516967775	199.816375732422	503.4613952636721	16.92078590393067	256.514129638672	539.2436523437502	31.44931602478029	199.5180511474611	728.7901611328127	530.2483520507815	53.77653884887698	782.261840820313	583.1740722656252	29.04724884033205	862.1256713867192	202.8370208740236	68.47126007080081	886.6157836914067	245.7344512939454	65.55971527099612	918.809692382813	29.00172233581544	127.2142791748047	1089.616577148438	106.0604705810547	102.8059234619141	1058.924926757813	71.9047546386719	65.18133544921878	540.6135864257815	1237.994506835938	278.0670471191407	475.141540527344	252.4714965820314	283.7192687988282	571.7063598632815	1331.379028320313	159.4923095703126	528.0278320312502	280.0814208984376	269.4790039062501	519.530456542969	887.474243164063	146.0660400390626	508.8497009277346	867.833618164063	159.2756805419922	506.894226074219	872.0507202148442	209.4077301025392	519.590270996094	898.9103393554692	232.2366333007814	537.200134277344	1033.083984375	182.7688446044922	732.544128417969	587.5247192382815	32.01097869873048	832.8105468750005	275.9981994628907	57.73966217041018	
308	1.535	697.9920654296877	1231.830444335938	140.2180480957032	756.4293212890627	1048.959106445313	142.2519836425782	726.0611572265627	855.484741210938	296.017059326172	728.743347167969	845.8524780273442	67.83628845214847	531.8381347656252	928.3717651367192	181.548568725586	595.478942871094	575.583190917969	317.5015869140626	591.0726318359377	499.1704101562502	294.904998779297	632.210144042969	545.1246337890627	300.1886291503907	493.8778381347659	209.3325347900392	262.9109497070314	351.6600036621095	47.47134017944337	200.0515136718751	503.460144042969	16.87239265441895	256.555877685547	539.3091430664065	31.37293624877931	199.6145324707032	735.6433715820315	528.8580322265627	53.9963302612305	789.0224609375005	581.4197387695315	28.16406250000001	872.2593383789067	202.2473449707032	68.702995300293	896.2382812500005	245.3774566650392	66.15351867675784	930.2502441406255	28.88575935363771	127.4967880249024	1100.760131835938	107.7365036010743	104.8427276611329	1070.614135742188	73.19154357910159	66.82517242431643	547.3532714843752	1236.556640625	277.7418212890626	477.5344238281252	252.8675231933595	283.9127197265626	578.3499145507815	1329.930908203125	159.0257263183594	530.7495727539065	279.8905334472657	269.8349609375001	526.8867187500002	885.980834960938	145.6844024658204	516.201599121094	866.5265502929692	158.5932312011719	513.9956054687502	870.698364257813	208.7001953125001	526.690368652344	897.5649414062505	231.6381225585939	544.218933105469	1031.555053710938	182.5888366699219	739.3474731445315	585.9649658203127	31.79419136047365	842.2278442382817	275.1226196289064	57.98297500610354	
309	1.54	704.870300292969	1230.394897460938	139.8409423828126	763.6336059570315	1047.585815429688	142.2091217041016	733.3145141601565	854.1409301757817	296.1875000000001	736.326843261719	844.6772460937505	67.86438751220706	539.3645629882815	927.0442504882817	181.0730285644532	600.6433715820315	575.0201416015627	317.6516418457032	595.8972167968752	498.5810241699221	295.1585388183595	637.2944335937502	544.323425292969	300.6048583984376	495.9554138183596	209.5281372070314	263.2312011718751	351.9968872070314	49.23323059082034	200.3029174804689	503.4599304199221	16.8310775756836	256.5883178710939	539.381774902344	31.29699325561525	199.7117004394532	742.6977539062502	527.617126464844	54.22820281982425	795.947875976563	579.887878417969	27.40195274353029	881.9230957031255	201.6751556396486	68.95233917236331	905.520874023438	244.9845275878907	66.78052520751956	940.6624145507817	28.6915912628174	127.7876892089844	1111.015991210938	108.8131408691407	107.0541305541993	1081.38037109375	74.00501251220706	68.58470153808597	554.1134033203127	1235.161987304688	277.3949584960939	480.0222167968752	253.2980957031251	284.0863037109376	585.016052246094	1328.522338867188	158.5405883789063	533.5648193359377	279.7196350097657	270.1634826660157	534.2734985351565	884.5851440429692	145.3459930419922	523.589294433594	865.3198852539067	157.9441833496094	521.1402587890627	869.4085083007817	208.0276184082032	533.8497314453127	896.276733398438	231.0925292968751	551.291931152344	1030.072998046875	182.445053100586	746.3129882812502	584.5819091796877	31.64597892761232	851.3881225585942	274.3351135253907	58.22807693481448	
310	1.545	711.776794433594	1229.015991210938	139.4476318359376	770.8786621093755	1046.272827148438	142.1492004394532	740.6172485351565	852.8140258789067	296.3452148437501	743.9204101562502	843.5862426757817	67.89051055908206	546.9341430664065	925.8005981445317	180.6746368408204	605.9297485351565	574.4404296875002	317.7700805664064	600.855163574219	497.9794006347659	295.3789978027345	642.4920043945315	543.5200195312502	300.9624328613282	498.109558105469	209.7600555419923	263.5316772460939	352.3716125488282	51.10379791259768	200.5737609863282	503.4620056152346	16.79789924621583	256.6119079589845	539.4627075195315	31.22202682495119	199.8099212646486	749.9674072265627	526.5329589843752	54.46323013305667	803.0618286132817	578.589050292969	26.78080940246583	891.1151733398442	201.1126556396486	69.22819519042972	914.4665527343755	244.5520782470704	67.43831634521487	950.0549926757817	28.41938972473146	128.0854034423829	1120.397705078125	109.2429504394532	109.4061279296876	1091.227294921875	74.30606842041018	70.43760681152347	560.8952636718752	1233.818237304688	277.0276184082032	482.6072692871096	253.7645111083986	284.2402954101564	591.7056274414065	1327.160278320313	158.0375518798829	536.4764404296877	279.5702209472657	270.462371826172	541.690124511719	883.294311523438	145.0529022216797	531.0131835937502	864.2188110351567	157.3332519531251	528.3306274414065	868.1853637695317	207.3950042724611	541.0700683593752	895.049682617188	230.6046752929689	558.4194946289065	1028.64501953125	182.3393249511719	753.462341308594	583.387145996094	31.56649971008302	860.2865600585942	273.6307067871095	58.48538589477542	
311	1.55	718.7114257812502	1227.701538085938	139.0382690429688	778.1630859375005	1045.027709960938	142.0713653564454	747.9689941406252	851.5080566406255	296.4866333007814	751.5233154296877	842.5878295898442	67.9108810424805	554.5439453125002	924.645629882813	180.3575286865235	611.3439941406252	573.8439941406252	317.852508544922	605.949645996094	497.3640441894534	295.5621643066407	647.8087158203127	542.7125244140627	301.2568969726564	500.3425292968752	210.0308380126954	263.8117675781251	352.7875061035157	53.08816528320315	200.8668365478517	503.4679260253909	16.7741870880127	256.6274719238282	539.5527343750002	31.14854431152345	199.9098052978517	757.4619140625002	525.6115722656252	54.69092941284183	810.3848266601567	577.5297851562502	26.31477355957033	899.8395385742192	200.5569915771486	69.53776550292972	923.0809936523442	244.0801849365236	68.12357330322268	958.4476928710942	28.07882499694826	128.3875274658204	1128.9287109375	108.992660522461	111.859230041504	1100.16650390625	74.06868743896487	72.35752868652347	567.699890136719	1232.532958984375	276.6411437988282	485.2929992675784	254.2687835693361	284.3750915527345	598.4193115234377	1325.851440429688	157.5174560546876	539.4884033203127	279.4438781738282	270.7300415039064	549.1358642578127	882.1145019531255	144.8066864013672	538.4733886718752	863.2274780273442	156.7648010253907	535.5691528320315	867.032592773438	206.8070831298829	548.3526611328127	893.8876342773442	230.1787567138673	565.601257324219	1027.278442382813	182.2728424072266	760.8142700195315	582.3898925781252	31.55221176147462	868.9216308593755	273.0072021484376	58.76413726806643	
312	1.555	725.673767089844	1226.459350585938	138.613265991211	785.484985351563	1043.858154296875	141.9750671386719	755.369079589844	850.2270507812505	296.6079406738282	759.1343994140627	841.6900024414067	67.92124938964847	562.1904296875002	923.5831909179692	180.1248779296876	616.8917236328127	573.2313232421877	317.8948669433595	611.184020996094	496.7339782714846	295.7038574218751	653.2505493164065	541.8997802734377	301.484832763672	502.6579589843752	210.3441009521486	264.0708618164064	353.249237060547	55.19278717041018	201.1842193603517	503.4794921875002	16.7616310119629	256.6361083984376	539.6527099609377	31.07690811157228	200.0121002197267	765.1863403320315	524.8582153320315	54.89968109130862	817.933471679688	576.714050292969	26.01303863525392	908.1060180664067	200.0103149414064	69.88600921630862	931.3720092773442	243.5725860595704	68.83201599121097	965.871215820313	27.68803215026857	128.6907958984376	1136.642333984375	108.0452957153321	114.3698883056641	1108.21826171875	73.2814636230469	74.31477355957034	574.5283203125002	1231.3134765625	276.2369689941407	488.0838928222659	254.813934326172	284.4910583496095	605.1577148437502	1324.602416992188	156.9812927246094	542.6057739257815	279.3424377441407	270.9653930664064	556.609558105469	881.0507812500005	144.608383178711	545.9697875976565	862.3488769531255	156.2428283691407	542.8577880859377	865.953247070313	206.2681579589845	555.6980590820315	892.7937011718755	229.8183135986329	572.8365478515627	1025.980224609375	182.2461090087891	768.383666992188	581.596862792969	31.59629821777345	877.295043945313	272.4654846191407	59.07177734375003	
313	1.56	732.6633300781252	1225.296875	138.1732635498047	792.8424682617192	1042.771240234375	141.8599853515626	762.8164062500002	848.975219726563	296.705047607422	766.7523193359377	840.8999023437505	67.91713714599612	569.869812011719	922.616577148438	179.9787902832032	622.578063964844	572.603698730469	317.8934326171876	616.5620117187502	496.0889587402346	295.7998962402345	658.8237304687502	541.081481933594	301.6437988281251	505.0610961914065	210.7046203613282	264.3084106445314	353.7631225585939	57.42552566528323	201.5266265869142	503.4988098144534	16.76231765747071	256.6390075683595	539.7631835937502	31.00720024108888	200.1177520751954	773.140991210938	524.2774658203127	55.07739257812503	825.7192993164067	576.1439208984377	25.88093376159669	915.930297851563	199.4796600341798	70.27532196044925	939.3501586914067	243.0365600585939	69.55838012695315	972.3671875000005	27.27198410034181	128.9913330078126	1143.581909179688	106.4019851684571	116.8919982910157	1115.411376953125	71.94880676269534	76.27725219726565	581.3811035156252	1230.166748046875	275.8167114257814	490.9855651855471	255.4040374755861	284.5884399414064	611.9212036132815	1323.419189453125	156.4302368164063	545.834899902344	279.2680664062501	271.1680297851564	564.1098632812502	880.1073608398442	144.4584045410157	553.5017700195315	861.5848999023442	155.7708282470704	550.198181152344	864.9497070312505	205.7820434570314	563.1063232421877	891.7709350585942	229.526092529297	580.1239013671877	1024.7568359375	182.2589874267579	776.1809082031255	581.012878417969	31.68928718566896	885.412231445313	272.0094299316407	59.41352844238284	
